<?xml version="1.0" encoding="UTF-8"?>
<!DOCTYPE svg PUBLIC "-//W3C//DTD SVG 1.1//EN" "http://www.w3.org/Graphics/SVG/1.1/DTD/svg11.dtd">
<!-- Creator: CorelDRAW X8 -->
<svg xmlns="http://www.w3.org/2000/svg" xml:space="preserve" width="128px" height="107px" version="1.1" style="shape-rendering:geometricPrecision; text-rendering:geometricPrecision; image-rendering:optimizeQuality; fill-rule:evenodd; clip-rule:evenodd"
viewBox="0 0 161 135"
 xmlns:xlink="http://www.w3.org/1999/xlink">
 <defs>
  <style type="text/css">
   <![CDATA[
    .fil1 {fill:black}
    .fil2 {fill:#B3B3B3}
    .fil0 {fill:#E8E8E8}
    .fil3 {fill:black;fill-rule:nonzero}
   ]]>
  </style>
    <clipPath id="id0" style="clip-rule:nonzero">
     <path d="M80 9c5,0 8,1 11,4 3,3 5,7 5,11 0,5 -2,8 -5,11 -3,3 -6,5 -11,5 -4,0 -8,-2 -11,-5 -3,-3 -4,-6 -4,-11 0,-4 1,-8 4,-11 3,-3 7,-4 11,-4zm8 8c-2,-2 -5,-3 -8,-3 -3,0 -5,1 -7,3 -2,2 -3,4 -3,7 0,3 1,6 3,8 2,2 4,3 7,3 3,0 6,-1 8,-3 2,-2 3,-5 3,-8 0,-3 -1,-5 -3,-7z"/>
    </clipPath>
 </defs>
 <g id="Ebene_x0020_1">
  <metadata id="CorelCorpID_0Corel-Layer"/>
  <rect class="fil0" width="161" height="130" rx="12" ry="12"/>
  <path class="fil1" d="M12 0l136 0c7,0 13,5 13,12l0 106c0,7 -6,12 -13,12l-53 0 0 5 -30 0 0 -5 -53 0c-7,0 -12,-5 -12,-12l0 -106c0,-7 5,-12 12,-12zm136 5l-136 0c-2,0 -4,1 -5,2l0 0c-1,1 -2,3 -2,5l0 106c0,2 1,4 2,5l0 0c1,2 3,2 5,2l136 0c2,0 4,0 5,-2l0 0c2,-1 3,-3 3,-5l0 -106c0,-2 -1,-4 -3,-5l0 0c-1,-1 -3,-2 -5,-2z"/>
  <rect class="fil2" x="11" y="45" width="137.99" height="75.2671" rx="6" ry="8"/>
  <path class="fil1" d="M19 45l123 0c4,0 7,3 7,8l0 60c0,4 -3,7 -7,7l-123 0c-4,0 -8,-3 -8,-7l0 -60c0,-5 4,-8 8,-8zm123 5l-123 0c-1,0 -1,0 -2,1 0,0 -1,1 -1,2l0 60c0,0 1,1 1,1 1,1 1,1 2,1l123 0c0,0 1,0 2,0l0 -1c0,0 0,-1 0,-1l0 -60c0,-1 0,-2 0,-2l0 0c-1,-1 -2,-1 -2,-1z"/>
  <circle class="fil1" cx="80" cy="24" r="4"/>
  <g>
   <g style="clip-path:url(#id0)">
    <image x="65" y="9" width="31.0636" height="31.0636" xlink:href="assets_Images\assets_ImgID1.png"/>
   </g>
  </g>
  <polygon class="fil3" points="14,11 50,11 50,16 14,16 "/>
  <polygon class="fil3" points="14,21 39,21 39,26 14,26 "/>
 </g>
</svg>
